HIERARCHY
ROOT root
{
	OFFSET	0	13.1	24.9
	CHANNELS 6  Xposition Yposition Zposition Xrotation Yrotation Zrotation
	JOINT spine_1
	{
		OFFSET	0	9.99999	0
		CHANNELS 3  Xrotation Yrotation Zrotation
		JOINT spine_2
		{
			OFFSET	0	112	-10
			CHANNELS 3  Xrotation Yrotation Zrotation
			JOINT spine_3
			{
				OFFSET	0	206.5	19.3
				CHANNELS 3  Xrotation Yrotation Zrotation
				JOINT spine_4
				{
					OFFSET	0	110.4	14.6
					CHANNELS 3  Xrotation Yrotation Zrotation
					JOINT neck_1
					{
						OFFSET	0	71.8	-50.3
						CHANNELS 3  Xrotation Yrotation Zrotation
						JOINT neck_2
						{
							OFFSET	0	86.2	-25.8
							CHANNELS 3  Xrotation Yrotation Zrotation
							JOINT head_ee
							{
								OFFSET	0	179.8	-8.7
								CHANNELS 3  Xrotation Yrotation Zrotation
								End Site
								{
									OFFSET	1	0	0
								}
							}
						}
					}
					JOINT left_clavicle
					{
						OFFSET	-43.2	22.4	-70.8
						CHANNELS 3  Xrotation Yrotation Zrotation
						JOINT left_shoulder
						{
							OFFSET	-93.9	-5.79999	48.7
							CHANNELS 3  Xrotation Yrotation Zrotation
							JOINT left_elbow
							{
								OFFSET	-291.4	-30.8	15.2
								CHANNELS 3  Xrotation Yrotation Zrotation
								JOINT left_lowarm_twist
								{
									OFFSET	-110.7	-3.89999	13.6
									CHANNELS 3  Xrotation Yrotation Zrotation
									JOINT left_hand
									{
										OFFSET	-110.7	-3.89999	13.6
										CHANNELS 3  Xrotation Yrotation Zrotation
										JOINT left_ee
										{
											OFFSET	-80.8	-5.10001	12.1
											CHANNELS 3  Xrotation Yrotation Zrotation
											End Site
											{
												OFFSET	1	0	0
											}
										}
									}
								}
							}
						}
					}
					JOINT right_clavicle
					{
						OFFSET	43.2	22.4	-70.8
						CHANNELS 3  Xrotation Yrotation Zrotation
						JOINT right_shoulder
						{
							OFFSET	93.9	-5.79999	48.7
							CHANNELS 3  Xrotation Yrotation Zrotation
							JOINT right_elbow
							{
								OFFSET	291.4	-30.8	15.2
								CHANNELS 3  Xrotation Yrotation Zrotation
								JOINT right_lowarm_twist
								{
									OFFSET	110.7	-3.89999	13.6
									CHANNELS 3  Xrotation Yrotation Zrotation
									JOINT right_hand
									{
										OFFSET	110.7	-3.89999	13.6
										CHANNELS 3  Xrotation Yrotation Zrotation
										JOINT right_ee
										{
											OFFSET	80.8	-5.10001	12.1
											CHANNELS 3  Xrotation Yrotation Zrotation
											End Site
											{
												OFFSET	1	0	0
											}
										}
									}
								}
							}
						}
					}
				}
			}
		}
	}
	JOINT left_hip
	{
		OFFSET	-82.8	-127.5	0.300001
		CHANNELS 3  Xrotation Yrotation Zrotation
		JOINT left_knee
		{
			OFFSET	-28.2	-396.7	2.2
			CHANNELS 3  Xrotation Yrotation Zrotation
			JOINT left_ankle
			{
				OFFSET	-11.7	-411.3	35.4
				CHANNELS 3  Xrotation Yrotation Zrotation
				JOINT left_toes
				{
					OFFSET	0	-60	-88.6
					CHANNELS 3  Xrotation Yrotation Zrotation
					JOINT left_foot_ee
					{
						OFFSET	-22.5	-16.5	-42.2
						CHANNELS 3  Xrotation Yrotation Zrotation
						End Site
						{
							OFFSET	1	0	0
						}
					}
				}
			}
		}
	}
	JOINT right_hip
	{
		OFFSET	82.8	-127.5	0.300001
		CHANNELS 3  Xrotation Yrotation Zrotation
		JOINT right_knee
		{
			OFFSET	28.2	-396.7	2.2
			CHANNELS 3  Xrotation Yrotation Zrotation
			JOINT right_ankle
			{
				OFFSET	11.7	-411.3	35.4
				CHANNELS 3  Xrotation Yrotation Zrotation
				JOINT right_toes
				{
					OFFSET	0	-60	-88.6
					CHANNELS 3  Xrotation Yrotation Zrotation
					JOINT right_foot_ee
					{
						OFFSET	22.5	-16.5	-42.2
						CHANNELS 3  Xrotation Yrotation Zrotation
						End Site
						{
							OFFSET	1	0	0
						}
					}
				}
			}
		}
	}
}
MOTION
Frames: 14
Frame Time: 0.02
2854.86334838 699.698 -1591.5681606 -19.3079176382 78.4851175759 16.388626314 3.2132 0.110044 2.62241 3.21702 -0.0569911 2.6241 3.21295 -0.463504 2.5835 3.20364 -0.0498186 2.62424 -7.2452 5.84588 -0.332287 -7.24619 11.1117 0.875859 -0.0 0.0 -0.0 -1.40664 11.5617 -1.00813 7.61496 -32.1334 61.0371 1.13092 -29.2577 0.295199 -37.551 -2.69456 3.87928 2.92159 8.21717 22.9918 -0.0 0.0 -0.0 8.82228 10.5974 -17.262 -13.9482 4.02621 -72.2247 1.00623 26.4936 -0.236881 -21.628 1.2411 -2.45485 0.42203 2.43783 -1.80347 0.0 0.0 0.0 7.04453 -11.5916 6.17746 -7.5564 0.23657 1.13471 38.7612 21.2913 -4.94297 -38.0753 0.0 0.0 -0.0 0.0 -0.0 22.5853 14.6199 -1.87469 -56.1492 1.79883 -8.08771 29.0855 -27.2119 4.05681 6.07645 -0.0 -0.0 0.0 0.0 0.0 
2840.67680261 692.158 -1577.99117159 -22.9667603537 80.8948595983 19.9704878148 3.20964 0.00894984 2.72 3.21374 -0.164084 2.71507 3.20437 -0.583949 2.65664 3.19455 -0.157216 2.71547 -5.0458 5.61213 -1.15436 -5.0109 11.1864 -0.202157 -0.0 0.0 -0.0 -1.21201 8.43559 -1.13363 9.32442 -32.3095 60.5177 1.14436 -29.5472 0.301799 -37.3985 -2.67884 3.86763 1.74962 8.6744 15.0835 -0.0 0.0 -0.0 8.61762 9.4643 -16.8492 -15.8494 2.45857 -71.5571 0.821538 22.1445 -0.160769 -21.3604 1.22023 -2.42765 0.144218 1.88663 -0.170298 0.0 0.0 0.0 5.94321 -11.9689 7.10851 -6.31616 0.208049 0.94653 42.3064 21.8038 -5.28391 -38.6522 0.0 0.0 -0.0 0.0 -0.0 25.6556 15.0806 -3.55945 -57.2087 1.90623 -8.21079 28.1555 -26.8587 3.93618 6.05771 -0.0 -0.0 0.0 0.0 0.0 
2833.58448166 695.765 -1558.3186017 -35.9214776194 83.3224792521 32.8416080526 2.98553 -0.0172753 2.63955 2.98938 -0.185142 2.63311 2.97958 -0.602109 2.57006 2.97041 -0.188807 2.63285 -4.29553 5.30399 -1.88126 -4.24125 11.1434 -1.06952 -0.0 0.0 -0.0 -0.989193 6.22614 -1.04941 10.7941 -32.6619 59.944 1.15696 -29.8171 0.308038 -36.7392 -2.61125 3.81677 0.866025 7.23572 8.67832 -0.0 0.0 -0.0 8.3842 7.20305 -16.3927 -17.2295 1.04241 -69.931 0.667999 18.3098 -0.107654 -21.1396 1.20312 -2.40514 -0.136096 0.350224 1.05734 0.0 0.0 0.0 5.08429 -11.3402 7.93937 -1.7293 0.0673308 0.256837 42.2317 24.0303 -5.34463 -40.1631 0.0 0.0 -0.0 0.0 -0.0 27.68 16.2434 -3.48009 -53.5019 1.54064 -7.77181 24.8453 -26.848 3.52829 2.35086 -0.0 -0.0 0.0 0.0 0.0 
2825.29183066 696.524 -1547.58295793 -41.5869439199 83.5767204955 38.4924988322 2.95234 0.106602 2.64376 2.95622 -0.0617831 2.64518 2.95214 -0.483373 2.60141 2.9427 -0.0666137 2.64506 -3.12144 5.56726 -1.84388 -3.04712 11.557 -1.10417 -0.0 0.0 -0.0 -0.390552 6.17259 0.0271058 13.1483 -33.0658 58.8972 1.2013 -30.7552 0.330398 -37.6232 -2.70201 3.88478 -0.336946 8.24442 1.24707 -0.0 0.0 -0.0 8.2089 5.15697 -16.0438 -18.6558 -0.0936044 -68.937 0.545541 15.1228 -0.0724175 -21.0066 1.19285 -2.39155 -0.654701 -2.83563 3.14544 0.0 0.0 0.0 3.09842 -9.78385 7.92215 1.89589 -0.0827015 -0.279154 42.2211 25.817 -5.40486 -40.1693 0.0 0.0 -0.0 0.0 -0.0 29.7934 17.1467 -3.92799 -49.8402 1.20828 -7.31618 22.1221 -26.8835 3.18042 -0.995967 0.0 0.0 0.0 0.0 0.0 
2806.43279448 699.412 -1535.93411521 -54.5610614915 84.6312429368 51.2955093536 2.91734 0.335724 2.52628 2.92087 0.174343 2.54251 2.92761 -0.23472 2.53765 2.91866 0.168867 2.54288 -3.64641 5.62589 -1.98342 -3.57553 11.7898 -1.18829 -0.0 0.0 -0.0 0.336569 3.60279 1.05479 16.5572 -33.6462 58.7417 1.40525 -34.8406 0.440946 -38.6816 -2.81205 3.96437 -1.84941 10.4767 -7.49942 -0.0 0.0 -0.0 8.44141 1.46294 -16.5042 -20.7849 -2.07368 -65.3874 0.258277 7.29115 -0.0164558 -20.3351 1.14148 -2.32256 -1.15506 -5.04484 5.48059 0.0 0.0 0.0 -0.695801 -9.34834 8.79666 5.99845 -0.293066 -0.873148 42.6734 25.6992 -5.44198 -38.6283 0.0 0.0 -0.0 0.0 -0.0 31.7776 20.7692 -3.02882 -35.2782 0.19401 -5.32605 18.4448 -26.7718 2.69015 -5.20388 0.0 0.0 0.0 0.0 0.0 
2807.58695616 699.412 -1532.76932383 -59.038238427 84.8997917309 55.7914042471 2.91734 0.335724 2.52628 2.92087 0.174343 2.54251 2.92761 -0.23472 2.53765 2.91866 0.168867 2.54288 -3.64641 5.62589 -1.98342 -3.57553 11.7898 -1.18829 -0.0 0.0 -0.0 0.336569 3.60279 1.05479 16.5572 -33.6462 58.7417 1.40525 -34.8406 0.440946 -38.6816 -2.81205 3.96437 -1.84941 10.4767 -7.49942 -0.0 0.0 -0.0 8.44141 1.46294 -16.5042 -20.7849 -2.07368 -65.3874 0.258277 7.29115 -0.0164558 -20.3351 1.14148 -2.32256 -1.15506 -5.04484 5.48059 0.0 0.0 0.0 -0.695801 -9.34834 8.79666 5.99845 -0.293066 -0.873148 42.6734 25.6992 -5.44198 -38.6283 0.0 0.0 -0.0 0.0 -0.0 31.7776 20.7692 -3.02882 -35.2782 0.19401 -5.32605 18.4448 -26.7718 2.69015 -5.20388 0.0 0.0 0.0 0.0 0.0 
2791.94645186 697.06 -1527.30869903 -61.7892683665 85.460806744 58.5017570119 2.82195 0.434491 2.42728 2.82519 0.279204 2.44999 2.83634 -0.120224 2.46291 2.82798 0.270136 2.45101 -4.31534 5.68602 -1.78738 -4.25807 11.7724 -0.90904 -0.0 0.0 -0.0 0.617055 3.20937 1.53435 18.3451 -33.8523 59.0446 1.52474 -37.0616 0.511109 -39.1395 -2.86012 3.99817 -2.47475 12.1354 -10.7085 -0.0 0.0 -0.0 8.44415 -0.409163 -16.4703 -22.0695 -2.98721 -63.7439 0.16346 4.62945 -0.00660728 -20.0813 1.12228 -2.29633 -1.42943 -6.61356 6.5748 0.0 0.0 0.0 -2.01474 -8.40108 9.19149 6.22187 -0.30574 -0.905056 41.9049 25.2421 -5.35541 -38.4044 0.0 0.0 -0.0 0.0 -0.0 31.9246 22.1311 -2.9208 -28.6923 -0.0919281 -4.35646 17.2743 -27.0008 2.53441 -6.55172 0.0 0.0 0.0 0.0 0.0 
2777.34206862 694.321 -1528.00595925 -67.2323685357 85.5997732924 63.8671725779 2.8146 0.275925 2.38877 2.81777 0.123407 2.40147 2.82212 -0.266862 2.38979 2.81416 0.113799 2.40195 -4.83406 5.67664 -1.61744 -4.78798 11.6447 -0.684488 -0.0 0.0 -0.0 0.921712 2.84035 2.06578 19.76 -33.5216 58.9763 1.6246 -38.8234 0.57252 -39.4724 -2.89523 4.02251 -3.07014 13.1944 -13.9984 -0.0 0.0 -0.0 8.41891 -1.6732 -16.3832 -24.9258 -3.94546 -62.9014 0.188648 5.33896 -0.00879574 -19.783 1.09986 -2.26539 -1.65617 -8.28766 7.28253 0.0 0.0 0.0 -3.12097 -6.98789 9.73182 7.04722 -0.353644 -1.02251 42.4232 24.9972 -5.39439 -38.0407 0.0 0.0 -0.0 0.0 -0.0 32.0442 23.0823 -3.0541 -23.3687 -0.240448 -3.55326 16.4157 -27.1968 2.41915 -7.48993 0.0 0.0 0.0 0.0 0.0 
2761.11667369 695.067 -1527.16328449 -50.5331371065 85.1073745527 46.8689117542 2.79144 0.518931 2.40159 2.79457 0.365106 2.42972 2.80936 -0.0332533 2.45676 2.80111 0.355047 2.43121 -5.1901 5.72816 -1.53199 -5.15028 11.6878 -0.552971 -0.0 0.0 -0.0 1.01734 2.6145 2.2225 20.72 -33.3657 58.6734 1.69559 -40.0251 0.617605 -39.3626 -2.88363 4.0145 -3.50582 14.2211 -16.2572 -0.0 0.0 -0.0 8.15212 -2.24892 -15.8369 -26.4526 -4.43589 -63.072 0.201634 5.70412 -0.0100452 -19.3315 1.06623 -2.21834 -1.80167 -10.2243 7.31201 0.0 0.0 0.0 -3.94344 -8.9254 9.27027 6.36656 -0.314016 -0.925696 41.5611 22.6513 -5.24127 -38.7666 0.0 0.0 -0.0 0.0 -0.0 31.9069 23.8439 -2.46515 -17.6168 -0.316394 -2.67431 15.8324 -27.287 2.33949 -8.15382 0.0 0.0 0.0 0.0 0.0 
2759.95340229 695.067 -1530.61399927 -46.5075942017 84.7927523699 42.8277104427 2.79144 0.518931 2.40159 2.79457 0.365106 2.42972 2.80936 -0.0332533 2.45676 2.80111 0.355047 2.43121 -5.1901 5.72816 -1.53199 -5.15028 11.6878 -0.552971 -0.0 0.0 -0.0 1.01734 2.6145 2.2225 20.72 -33.3657 58.6734 1.69559 -40.0251 0.617605 -39.3626 -2.88363 4.0145 -3.50582 14.2211 -16.2572 -0.0 0.0 -0.0 8.15212 -2.24892 -15.8369 -26.4526 -4.43589 -63.072 0.201634 5.70412 -0.0100452 -19.3315 1.06623 -2.21834 -1.80167 -10.2243 7.31201 0.0 0.0 0.0 -3.94344 -8.9254 9.27027 6.36656 -0.314016 -0.925696 41.5611 22.6513 -5.24127 -38.7666 0.0 0.0 -0.0 0.0 -0.0 31.9069 23.8439 -2.46515 -17.6168 -0.316394 -2.67431 15.8324 -27.287 2.33949 -8.15382 0.0 0.0 0.0 0.0 0.0 
2748.04706553 693.648 -1532.25347023 -52.8869622405 85.43234857 49.084977242 2.69637 0.322354 2.35807 2.69944 0.171694 2.37379 2.70588 -0.219498 2.36985 2.69807 0.157422 2.37478 -6.85043 5.38257 -1.09589 -6.8412 10.7846 -0.0186246 -0.0 0.0 -0.0 1.14149 3.36729 2.52861 21.6129 -33.5071 58.7418 1.90266 -43.3007 0.755312 -40.4234 -2.99631 4.0909 -3.81614 14.0942 -18.3713 -0.0 0.0 -0.0 8.18271 -3.22545 -15.8649 -28.2059 -5.26196 -62.1967 0.201056 5.68788 -0.00998791 -18.5367 1.00795 -2.1349 -2.0957 -12.5639 8.06554 0.0 0.0 0.0 -4.92943 -8.64958 9.18675 6.28066 -0.309097 -0.913445 42.0757 20.0922 -5.21818 -39.7472 0.0 0.0 -0.0 0.0 -0.0 32.7054 24.8136 -2.34774 -14.5114 -0.320631 -2.19792 14.6225 -27.7016 2.17577 -12.6665 0.0 0.0 0.0 0.0 0.0 
2723.23410979 694.758 -1535.43926953 -40.6266152195 83.9836987809 36.5027554775 2.67779 0.382882 2.34488 2.68082 0.232938 2.36448 2.6898 -0.158169 2.37065 2.68202 0.218109 2.36589 -6.79585 6.06227 -0.500257 -6.78964 11.6135 0.709624 -0.0 0.0 -0.0 1.16823 5.11144 2.74479 22.4016 -31.7045 57.7887 2.17642 -47.1471 0.949753 -42.8457 -3.25876 4.25747 -4.29579 15.2782 -20.83 -0.0 0.0 -0.0 8.40657 -4.10491 -16.2664 -29.871 -5.23711 -61.8022 0.241109 6.8112 -0.0143481 -17.2974 0.919411 -2.00322 -2.29886 -18.1056 6.5658 0.0 0.0 0.0 -5.61529 -11.5485 8.97538 5.64776 -0.273422 -0.822965 41.102 17.912 -5.08271 -40.2129 0.0 0.0 -0.0 0.0 -0.0 31.9841 25.985 -1.83847 -0.184487 -0.00755264 -0.0273039 3.828 -28.8695 0.592667 -15.0798 0.0 0.0 0.0 0.0 0.0 
2676.45289223 689.923 -1541.61404175 -40.9860269894 83.4858292093 36.5957330941 2.87023 0.362506 2.37783 2.87335 0.210508 2.39607 2.88133 -0.177477 2.39874 2.87335 0.203474 2.39667 -7.63306 6.02403 -0.977844 -7.63622 11.9208 0.308272 -0.0 0.0 -0.0 2.90848 9.18692 6.15951 23.5722 -31.7632 57.5956 2.3684 -49.5503 1.09323 -44.8599 -3.48221 4.38745 -4.30817 15.5343 -20.749 -0.0 0.0 -0.0 7.86788 -5.57995 -15.1675 -30.64 -5.71055 -62.5299 0.226532 6.40294 -0.0126709 -16.1685 0.841262 -1.88164 -2.12987 -22.5432 3.33756 0.0 0.0 0.0 -7.8161 -18.8161 8.6038 5.80638 -0.282269 -0.845678 42.6173 20.8664 -5.28563 -39.073 0.0 0.0 -0.0 0.0 -0.0 32.2665 26.4864 -1.01299 3.84174 0.17716 0.562722 -4.48395 -21.226 -0.679027 -16.5722 0.0 0.0 0.0 0.0 0.0 
2614.0852996 674.875 -1551.31002888 -39.338387397 81.5324535291 35.0761997406 3.27313 0.177868 2.19398 3.27581 0.0379334 2.20085 3.27622 -0.301497 2.18044 3.26959 0.04656 2.20068 -6.61484 5.14401 -2.77627 -6.57775 11.5551 -1.77652 -0.0 0.0 -0.0 1.01564 13.3932 3.24694 21.3644 -33.3986 59.8686 2.59985 -52.1632 1.27279 -46.3408 -3.64932 4.47797 -3.69068 10.0959 -19.8774 -0.0 0.0 -0.0 7.78898 -7.28965 -14.9435 -27.7881 -5.50898 -61.9923 0.206324 5.8359 -0.0105167 -15.7906 0.815639 -1.84061 -1.69485 -28.8851 -2.12584 0.0 0.0 0.0 -9.6746 -22.5204 8.53265 5.07439 -0.241971 -0.740668 43.3763 24.1687 -5.45146 -34.2008 0.0 0.0 -0.0 0.0 -0.0 32.2252 27.8005 -1.76388 4.5801 0.21552 0.669476 -21.87 -8.12866 -3.28943 -12.7889 0.0 0.0 0.0 0.0 0.0 
